<svg width="40" height="40" viewBox="0 0 40 40" fill="none" xmlns="http://www.w3.org/2000/svg">
<path fill-rule="evenodd" clip-rule="evenodd" d="M1.90476 0C0.85279 0 0 0.85279 0 1.90476C0 2.95673 0.85279 3.80952 1.90476 3.80952C3.29222 3.80952 4.50436 4.81768 4.75392 6.23619L6.06035 13.6623L6.06152 13.6688L6.89857 18.3468C7.42208 21.2726 7.84013 23.6091 8.36868 25.4651C8.91375 27.3791 9.62019 28.954 10.82 30.285C11.6441 31.1991 12.6083 31.9817 13.6769 32.6062C15.2249 33.5109 16.9313 33.9092 18.9602 34.0999C20.9368 34.2857 23.3867 34.2857 26.4729 34.2857H27.4111C28.7837 34.2857 29.9154 34.2857 30.8477 34.2179C31.8188 34.1472 32.7027 33.9966 33.5604 33.6309C34.8111 33.0978 35.9064 32.2596 36.7361 31.1901C37.309 30.4516 37.6665 29.6375 37.9597 28.728C38.2395 27.8602 38.4947 26.7904 38.8013 25.5051L38.84 25.343C39.3061 23.3895 39.687 21.7933 39.8714 20.49C40.0611 19.1489 40.0819 17.8876 39.65 16.6718C39.043 14.9627 37.8482 13.5238 36.2848 12.5864C35.1835 11.926 33.9381 11.6677 32.5565 11.5467C31.2075 11.4285 29.5171 11.4285 27.4313 11.4286H9.53541L8.50582 5.57613C7.94083 2.36465 5.17016 0 1.90476 0ZM27.3422 15.2381C29.5383 15.2381 31.0611 15.2398 32.2241 15.3416C33.3736 15.4423 33.9484 15.6273 34.3258 15.8536C35.1497 16.3475 35.7563 17.0913 36.0602 17.9468C36.1927 18.3198 36.2533 18.8687 36.0994 19.9563C35.9431 21.0614 35.6059 22.483 35.1126 24.5507C34.7849 25.9243 34.5629 26.849 34.334 27.5591C34.1134 28.2434 33.9247 28.5991 33.7261 28.8551C33.3011 29.4029 32.7313 29.8432 32.0665 30.1266C31.7463 30.2631 31.3256 30.3635 30.5712 30.4184C29.7935 30.475 28.8008 30.4761 27.3422 30.4761H26.569C23.3654 30.4761 21.0943 30.4742 19.3167 30.3071C17.571 30.143 16.4795 29.8317 15.5991 29.3172C14.8654 28.8884 14.2081 28.3539 13.6495 27.7343C12.9863 26.9986 12.4919 26.0349 12.0325 24.4217C11.5626 22.7717 11.1761 20.6244 10.6307 17.5759L10.2123 15.2381H27.3422Z" fill="#6D1E6D"/>
<path d="M17.1428 37.619C17.1428 38.934 16.0768 39.9999 14.7619 39.9999C13.4469 39.9999 12.3809 38.934 12.3809 37.619C12.3809 36.304 13.4469 35.238 14.7619 35.238C16.0768 35.238 17.1428 36.304 17.1428 37.619Z" fill="#6D1E6D"/>
<path d="M31.9047 39.9999C33.2197 39.9999 34.2857 38.934 34.2857 37.619C34.2857 36.304 33.2197 35.238 31.9047 35.238C30.5898 35.238 29.5238 36.304 29.5238 37.619C29.5238 38.934 30.5898 39.9999 31.9047 39.9999Z" fill="#6D1E6D"/>
</svg>
