<svg width="24" height="21" viewBox="0 0 24 21" fill="none" xmlns="http://www.w3.org/2000/svg">
<path fill-rule="evenodd" clip-rule="evenodd" d="M8.66908 0.924951C3.5203 4.14738 0.660089 7.89755 0.0877746 12.1775C-0.803177 18.8389 5.30972 22.0993 8.40719 19.17C11.5047 16.2401 9.64823 12.522 7.40547 11.5051C5.16271 10.4889 3.79107 10.8428 4.03039 9.48411C4.26971 8.1261 7.46017 4.35994 10.2636 2.60613C10.363 2.52381 10.4264 2.40765 10.4408 2.28135C10.4553 2.15505 10.4198 2.02813 10.3416 1.92646L9.64824 1.04756C9.34738 0.66641 9.05883 0.68107 8.66908 0.924284M22.2255 0.924951C17.0767 4.14738 14.2158 7.89822 13.6442 12.1775C12.7532 18.8389 18.8661 22.0993 21.9636 19.17C25.0611 16.2401 23.2046 12.522 20.9612 11.5051C18.7184 10.4889 17.3468 10.8428 17.5861 9.48411C17.8254 8.1261 21.0166 4.35994 23.82 2.60613C23.9193 2.52371 23.9825 2.40751 23.9969 2.28122C24.0112 2.15492 23.9756 2.02805 23.8973 1.92646L23.204 1.04756C22.9031 0.66641 22.6145 0.68107 22.2255 0.924284" fill="#6D1E6D"/>
</svg>
