<svg width="65" height="52" viewBox="0 0 65 52" fill="none" xmlns="http://www.w3.org/2000/svg">
<path fill-rule="evenodd" clip-rule="evenodd" d="M23.6175 0.466536C9.88746 9.05968 2.26024 19.0601 0.734066 30.4732C-1.6418 48.237 14.6593 56.9314 22.9192 49.1201C31.1791 41.3071 26.2286 31.3919 20.2479 28.6803C14.2672 25.9705 10.6095 26.9141 11.2477 23.291C11.8859 19.6696 20.3938 9.62651 27.8697 4.94968C28.1346 4.73015 28.3036 4.4204 28.3422 4.08361C28.3809 3.74681 28.2862 3.40835 28.0775 3.13723L26.2286 0.793488C25.4263 -0.222905 24.6569 -0.183814 23.6175 0.464758M59.768 0.466536C46.0379 9.05968 38.4088 19.0619 36.8845 30.4732C34.5086 48.237 50.8097 56.9314 59.0696 49.1201C67.3295 41.3071 62.3791 31.3919 56.3965 28.6803C50.4158 25.9705 46.7581 26.9141 47.3963 23.291C48.0345 19.6696 56.5442 9.62651 64.0201 4.94968C64.2847 4.7299 64.4534 4.42003 64.4917 4.08325C64.53 3.74647 64.435 3.40813 64.2261 3.13723L62.3772 0.793488C61.5749 -0.222905 60.8055 -0.183814 59.768 0.464758" fill="#6D1E6D"/>
</svg>
