<svg width="26" height="26" viewBox="0 0 26 26" fill="none" xmlns="http://www.w3.org/2000/svg">
<path d="M7.46592 1.5H18.5341C21.8293 1.5 24.5 4.17116 24.5 7.46643V18.5336C24.5 21.8288 21.8288 24.5 18.5336 24.5H7.46643C4.17121 24.5 1.5 21.8288 1.5 18.5336V7.46643C1.5 4.17116 4.17075 1.5 7.46592 1.5Z" stroke="#E4B363"/>
<path d="M18.5341 1H7.46592C3.89455 1 1 3.89507 1 7.46643V18.5336C1 22.1049 3.89507 25 7.46643 25H18.5336C22.1049 25 25 22.1049 25 18.5336V7.46643C25 3.89507 22.1054 1 18.5341 1Z" stroke="#E4B363" stroke-miterlimit="10"/>
<path d="M13 18.7932C16.1995 18.7932 18.7932 16.1995 18.7932 13C18.7932 9.80047 16.1995 7.20676 13 7.20676C9.8005 7.20676 7.20679 9.80047 7.20679 13C7.20679 16.1995 9.8005 18.7932 13 18.7932Z" stroke="#E4B363" stroke-miterlimit="10"/>
<path d="M20.7757 5.96554C20.7757 6.37493 20.4439 6.7068 20.0345 6.7068C19.6251 6.7068 19.2932 6.37493 19.2932 5.96554C19.2932 5.55616 19.6251 5.22429 20.0345 5.22429C20.4438 5.22429 20.7757 5.55616 20.7757 5.96554Z" fill="#E4B363" stroke="#E4B363"/>
</svg>
