<svg width="24" height="24" viewBox="0 0 24 24" fill="none" xmlns="http://www.w3.org/2000/svg">
<path fill-rule="evenodd" clip-rule="evenodd" d="M10.3181 0.87763C11.0166 1.26675 11.5853 1.72219 12.0001 2.10512C12.4149 1.7222 12.9835 1.26676 13.6819 0.877637C15.2648 -0.00417025 17.5429 -0.549556 20.1048 0.877625C21.7413 1.78928 22.8483 3.16874 23.4511 4.84356C24.0458 6.49586 24.1267 8.36644 23.8404 10.2643C23.3526 13.4978 21.3435 16.3831 19.28 18.6062C17.1907 20.857 14.8999 22.5832 13.608 23.4833C12.6191 24.1722 11.3811 24.1722 10.3922 23.4833C9.10023 22.5832 6.80939 20.857 4.7201 18.6062C2.65657 16.3831 0.647363 13.4978 0.15962 10.2643C-0.126654 8.36644 -0.0458486 6.49586 0.548875 4.84356C1.1517 3.16874 2.25872 1.78928 3.89521 0.877625C6.45711 -0.549558 8.73524 -0.00416682 10.3181 0.87763ZM11.1689 4.54277C11.3762 4.81092 11.68 4.96551 12.0001 4.9655C12.3196 4.9655 12.6229 4.81144 12.8302 4.54415C12.8304 4.54385 12.8306 4.54354 12.8309 4.54323C12.8312 4.54287 12.8314 4.54251 12.8317 4.54214L12.8483 4.5217C12.8652 4.50098 12.8938 4.46685 12.9333 4.42185C13.0125 4.33167 13.1349 4.19906 13.296 4.04396C13.6208 3.73144 14.0895 3.34079 14.6677 3.01867C15.8034 2.38601 17.3312 2.02272 19.119 3.01868C20.2863 3.66894 21.0186 4.60477 21.4225 5.72704C21.8346 6.87183 21.928 8.28015 21.688 9.87146C21.3155 12.3408 19.7147 14.7785 17.7533 16.8916C15.8177 18.977 13.6686 20.6002 12.4405 21.4558C12.1645 21.6481 11.8357 21.6481 11.5596 21.4558C10.3315 20.6002 8.18244 18.977 6.24675 16.8916C4.2853 14.7785 2.68449 12.3408 2.31202 9.87146C2.07198 8.28015 2.16544 6.87183 2.57749 5.72704C2.98144 4.60477 3.71371 3.66894 4.88098 3.01868C6.6688 2.02272 8.19667 2.38601 9.33235 3.01868C9.91058 3.3408 10.3793 3.73145 10.7041 4.04398C10.8653 4.19908 10.9877 4.33169 11.0669 4.42187C11.1064 4.46687 11.1349 4.501 11.1519 4.52173L11.1689 4.54277Z" fill="#F5F5F5"/>
</svg>
