<svg width="110" height="64" viewBox="0 0 110 64" fill="none" xmlns="http://www.w3.org/2000/svg">
<path d="M24.168 18.064C27.88 18.064 30.568 18.64 32.232 19.792C33.896 20.944 34.728 22.48 34.728 24.4C34.728 26.064 34.184 27.6 33.096 29.008C32.04 30.384 30.536 31.52 28.584 32.416C26.664 33.312 24.408 33.888 21.816 34.144C25.432 34.304 28.136 35.088 29.928 36.496C31.72 37.872 32.616 39.584 32.616 41.632C32.616 43.296 32.216 44.784 31.416 46.096C30.648 47.376 29.544 48.464 28.104 49.36C26.696 50.224 25.032 50.88 23.112 51.328C21.192 51.776 19.096 52 16.824 52C15.832 52 14.68 51.984 13.368 51.952C12.088 51.888 10.44 51.856 8.424 51.856C7.624 51.856 6.76 51.872 5.832 51.904C4.904 51.904 4.008 51.92 3.144 51.952C2.28 51.952 1.56 51.968 0.984 52L1.176 51.04C2.264 50.976 3.112 50.848 3.72 50.656C4.328 50.464 4.808 50.08 5.16 49.504C5.512 48.928 5.832 48.064 6.12 46.912L12.456 23.104C12.712 22.112 12.84 21.328 12.84 20.752C12.872 20.144 12.648 19.712 12.168 19.456C11.72 19.168 10.872 19.008 9.624 18.976L9.864 18.016C10.44 18.048 11.144 18.08 11.976 18.112C12.84 18.112 13.72 18.128 14.616 18.16C15.544 18.16 16.392 18.16 17.16 18.16C18.632 18.16 19.896 18.144 20.952 18.112C22.008 18.08 23.08 18.064 24.168 18.064ZM15.24 34.768L15.432 33.952H18.84C20.664 33.952 22.184 33.456 23.4 32.464C24.648 31.472 25.592 30.192 26.232 28.624C26.872 27.024 27.192 25.36 27.192 23.632C27.192 22.224 26.92 21.104 26.376 20.272C25.864 19.408 24.904 18.976 23.496 18.976C22.536 18.976 21.832 19.2 21.384 19.648C20.968 20.096 20.584 21.008 20.232 22.384L13.752 46.912C13.56 47.616 13.432 48.272 13.368 48.88C13.304 49.488 13.432 49.984 13.752 50.368C14.072 50.72 14.712 50.896 15.672 50.896C17.624 50.896 19.256 50.432 20.568 49.504C21.88 48.576 22.872 47.344 23.544 45.808C24.248 44.272 24.6 42.592 24.6 40.768C24.6 39.616 24.424 38.592 24.072 37.696C23.72 36.8 23.128 36.096 22.296 35.584C21.496 35.04 20.424 34.768 19.08 34.768H15.24ZM41.8661 41.584C43.1781 41.072 44.4261 40.496 45.6101 39.856C46.7941 39.216 47.8021 38.512 48.6341 37.744C49.8821 36.624 50.8741 35.328 51.6101 33.856C52.3781 32.352 52.7621 30.736 52.7621 29.008C52.7621 28.368 52.6981 27.952 52.5701 27.76C52.4421 27.536 52.2501 27.424 51.9941 27.424C51.2901 27.424 50.5221 27.792 49.6901 28.528C48.8901 29.232 48.0901 30.192 47.2901 31.408C46.4901 32.592 45.7541 33.952 45.0821 35.488C44.4421 37.024 43.9141 38.624 43.4981 40.288C43.1141 41.952 42.9221 43.568 42.9221 45.136C42.9221 46.928 43.2581 48.16 43.9301 48.832C44.6341 49.472 45.5301 49.792 46.6181 49.792C47.4821 49.792 48.5541 49.504 49.8341 48.928C51.1141 48.352 52.3781 47.328 53.6261 45.856L54.3941 46.24C53.7221 47.296 52.8421 48.32 51.7541 49.312C50.6661 50.304 49.4021 51.12 47.9621 51.76C46.5221 52.368 44.9541 52.672 43.2581 52.672C41.8181 52.672 40.5221 52.416 39.3701 51.904C38.2501 51.392 37.3541 50.64 36.6821 49.648C36.0421 48.624 35.7221 47.376 35.7221 45.904C35.7221 44.208 35.9941 42.464 36.5381 40.672C37.1141 38.88 37.9141 37.152 38.9381 35.488C39.9621 33.792 41.1941 32.272 42.6341 30.928C44.0741 29.552 45.6741 28.48 47.4341 27.712C49.1941 26.912 51.0661 26.512 53.0501 26.512C54.4581 26.512 55.6421 26.832 56.6021 27.472C57.5621 28.08 58.0421 29.024 58.0421 30.304C58.0421 31.552 57.6901 32.72 56.9861 33.808C56.3141 34.896 55.4021 35.888 54.2501 36.784C53.0981 37.68 51.8021 38.48 50.3621 39.184C48.9541 39.888 47.4981 40.496 45.9941 41.008C44.5221 41.52 43.1301 41.92 41.8181 42.208L41.8661 41.584ZM64.8941 47.92C64.6701 48.752 64.6381 49.36 64.7981 49.744C64.9901 50.128 65.2941 50.32 65.7101 50.32C66.0621 50.32 66.4941 50.096 67.0061 49.648C67.5181 49.168 68.0461 48.128 68.5901 46.528L69.4541 44.224H70.3661L69.1661 47.728C68.7181 49.04 68.1421 50.048 67.4381 50.752C66.7341 51.456 65.9821 51.952 65.1821 52.24C64.3821 52.528 63.5821 52.672 62.7821 52.672C61.7261 52.672 60.8781 52.48 60.2381 52.096C59.5981 51.744 59.1181 51.232 58.7981 50.56C58.5101 49.856 58.3821 49.04 58.4141 48.112C58.4781 47.184 58.6701 46.16 58.9901 45.04L66.5261 19.984C66.8461 18.896 66.8141 18.096 66.4301 17.584C66.0461 17.072 65.0701 16.816 63.5021 16.816L63.8381 15.808C66.1421 15.776 68.1581 15.6 69.8861 15.28C71.6461 14.928 73.3421 14.448 74.9741 13.84L64.8941 47.92ZM79.2848 47.92C79.0608 48.752 79.0288 49.36 79.1888 49.744C79.3808 50.128 79.6848 50.32 80.1008 50.32C80.4528 50.32 80.8848 50.096 81.3968 49.648C81.9088 49.168 82.4368 48.128 82.9808 46.528L83.8448 44.224H84.7568L83.5568 47.728C83.1088 49.04 82.5328 50.048 81.8288 50.752C81.1248 51.456 80.3728 51.952 79.5728 52.24C78.7728 52.528 77.9728 52.672 77.1728 52.672C76.1168 52.672 75.2688 52.48 74.6288 52.096C73.9888 51.744 73.5088 51.232 73.1888 50.56C72.9008 49.856 72.7728 49.04 72.8048 48.112C72.8688 47.184 73.0608 46.16 73.3808 45.04L80.9168 19.984C81.2368 18.896 81.2048 18.096 80.8208 17.584C80.4368 17.072 79.4608 16.816 77.8928 16.816L78.2288 15.808C80.5328 15.776 82.5488 15.6 84.2768 15.28C86.0368 14.928 87.7328 14.448 89.3648 13.84L79.2848 47.92ZM93.1474 41.584C94.4594 41.072 95.7074 40.496 96.8914 39.856C98.0754 39.216 99.0834 38.512 99.9154 37.744C101.163 36.624 102.155 35.328 102.891 33.856C103.659 32.352 104.043 30.736 104.043 29.008C104.043 28.368 103.979 27.952 103.851 27.76C103.723 27.536 103.531 27.424 103.275 27.424C102.571 27.424 101.803 27.792 100.971 28.528C100.171 29.232 99.3714 30.192 98.5714 31.408C97.7714 32.592 97.0354 33.952 96.3634 35.488C95.7234 37.024 95.1954 38.624 94.7794 40.288C94.3954 41.952 94.2034 43.568 94.2034 45.136C94.2034 46.928 94.5394 48.16 95.2114 48.832C95.9154 49.472 96.8114 49.792 97.8994 49.792C98.7634 49.792 99.8354 49.504 101.115 48.928C102.395 48.352 103.659 47.328 104.907 45.856L105.675 46.24C105.003 47.296 104.123 48.32 103.035 49.312C101.947 50.304 100.683 51.12 99.2434 51.76C97.8034 52.368 96.2354 52.672 94.5394 52.672C93.0994 52.672 91.8034 52.416 90.6514 51.904C89.5314 51.392 88.6354 50.64 87.9634 49.648C87.3234 48.624 87.0034 47.376 87.0034 45.904C87.0034 44.208 87.2754 42.464 87.8194 40.672C88.3954 38.88 89.1954 37.152 90.2194 35.488C91.2434 33.792 92.4754 32.272 93.9154 30.928C95.3554 29.552 96.9554 28.48 98.7154 27.712C100.475 26.912 102.347 26.512 104.331 26.512C105.739 26.512 106.923 26.832 107.883 27.472C108.843 28.08 109.323 29.024 109.323 30.304C109.323 31.552 108.971 32.72 108.267 33.808C107.595 34.896 106.683 35.888 105.531 36.784C104.379 37.68 103.083 38.48 101.643 39.184C100.235 39.888 98.7794 40.496 97.2754 41.008C95.8034 41.52 94.4114 41.92 93.0994 42.208L93.1474 41.584Z" fill="#6D1E6D"/>
</svg>
