<svg width="24" height="24" viewBox="0 0 24 24" fill="none" xmlns="http://www.w3.org/2000/svg">
<path fill-rule="evenodd" clip-rule="evenodd" d="M1.14286 0C0.511674 0 0 0.511674 0 1.14286C0 1.77404 0.511674 2.28571 1.14286 2.28571C1.97533 2.28571 2.70262 2.89061 2.85235 3.74171L3.63621 8.19735L3.63691 8.20129L4.13914 11.0081C4.45325 12.7636 4.70408 14.1654 5.02121 15.2791C5.34825 16.4275 5.77211 17.3724 6.49201 18.171C6.98646 18.7195 7.56498 19.189 8.20613 19.5637C9.13492 20.1065 10.1588 20.3455 11.3761 20.4599C12.5621 20.5714 14.032 20.5714 15.8837 20.5714H16.4467C17.2702 20.5714 17.9492 20.5714 18.5086 20.5307C19.0913 20.4883 19.6216 20.398 20.1362 20.1786C20.8866 19.8587 21.5439 19.3558 22.0416 18.7141C22.3854 18.271 22.5999 17.7825 22.7758 17.2368C22.9437 16.7161 23.0968 16.0742 23.2808 15.3031L23.304 15.2058C23.5837 14.0337 23.8122 13.076 23.9228 12.294C24.0367 11.4894 24.0491 10.7326 23.79 10.0031C23.4258 8.9776 22.7089 8.11426 21.7709 7.55182C21.1101 7.15562 20.3629 7.00059 19.5339 6.92799C18.7245 6.85711 17.7103 6.85712 16.4588 6.85713H5.72125L5.10349 3.34568C4.7645 1.41879 3.10209 0 1.14286 0ZM16.4053 9.14285C17.723 9.14285 18.6367 9.14388 19.3345 9.20499C20.0242 9.26539 20.369 9.37636 20.5955 9.51216C21.0898 9.80853 21.4538 10.2548 21.6361 10.7681C21.7156 10.9919 21.752 11.3212 21.6596 11.9738C21.5658 12.6368 21.3636 13.4898 21.0676 14.7304C20.8709 15.5546 20.7377 16.1094 20.6004 16.5355C20.468 16.946 20.3548 17.1594 20.2357 17.313C19.9807 17.6417 19.6388 17.9059 19.2399 18.0759C19.0478 18.1578 18.7954 18.2181 18.3427 18.251C17.8761 18.285 17.2805 18.2857 16.4053 18.2857H15.9414C14.0192 18.2857 12.6566 18.2845 11.59 18.1843C10.5426 18.0858 9.88769 17.899 9.35944 17.5903C8.91924 17.333 8.52486 17.0123 8.18972 16.6406C7.7918 16.1991 7.49514 15.6209 7.21952 14.653C6.93758 13.663 6.70568 12.3746 6.3784 10.5456L6.1274 9.14285H16.4053Z" fill="#6D1E6D"/>
<path d="M10.2857 22.5714C10.2857 23.3604 9.64611 24 8.85713 24C8.06815 24 7.42856 23.3604 7.42856 22.5714C7.42856 21.7824 8.06815 21.1428 8.85713 21.1428C9.64611 21.1428 10.2857 21.7824 10.2857 22.5714Z" fill="#6D1E6D"/>
<path d="M19.1428 24C19.9318 24 20.5714 23.3604 20.5714 22.5714C20.5714 21.7824 19.9318 21.1428 19.1428 21.1428C18.3539 21.1428 17.7143 21.7824 17.7143 22.5714C17.7143 23.3604 18.3539 24 19.1428 24Z" fill="#6D1E6D"/>
</svg>
