<svg width="55" height="21" viewBox="0 0 55 21" fill="none" xmlns="http://www.w3.org/2000/svg">
<path d="M11.9229 3.032C13.7789 3.032 15.1229 3.32 15.9549 3.896C16.7869 4.472 17.2029 5.24 17.2029 6.2C17.2029 7.032 16.9309 7.8 16.3869 8.504C15.8589 9.192 15.1069 9.76 14.1309 10.208C13.1709 10.656 12.0429 10.944 10.7469 11.072C12.5549 11.152 13.9069 11.544 14.8029 12.248C15.6989 12.936 16.1469 13.792 16.1469 14.816C16.1469 15.648 15.9469 16.392 15.5469 17.048C15.1629 17.688 14.6109 18.232 13.8909 18.68C13.1869 19.112 12.3549 19.44 11.3949 19.664C10.4349 19.888 9.38687 20 8.25087 20C7.75487 20 7.17887 19.992 6.52287 19.976C5.88287 19.944 5.05887 19.928 4.05087 19.928C3.65087 19.928 3.21887 19.936 2.75487 19.952C2.29087 19.952 1.84287 19.96 1.41087 19.976C0.978867 19.976 0.618867 19.984 0.330867 20L0.426867 19.52C0.970867 19.488 1.39487 19.424 1.69887 19.328C2.00287 19.232 2.24287 19.04 2.41887 18.752C2.59487 18.464 2.75487 18.032 2.89887 17.456L6.06687 5.552C6.19487 5.056 6.25887 4.664 6.25887 4.376C6.27487 4.072 6.16287 3.856 5.92287 3.728C5.69887 3.584 5.27487 3.504 4.65087 3.488L4.77087 3.008C5.05887 3.024 5.41087 3.04 5.82687 3.056C6.25887 3.056 6.69887 3.064 7.14687 3.08C7.61087 3.08 8.03487 3.08 8.41887 3.08C9.15487 3.08 9.78687 3.072 10.3149 3.056C10.8429 3.04 11.3789 3.032 11.9229 3.032ZM7.45887 11.384L7.55487 10.976H9.25887C10.1709 10.976 10.9309 10.728 11.5389 10.232C12.1629 9.736 12.6349 9.096 12.9549 8.312C13.2749 7.512 13.4349 6.68 13.4349 5.816C13.4349 5.112 13.2989 4.552 13.0269 4.136C12.7709 3.704 12.2909 3.488 11.5869 3.488C11.1069 3.488 10.7549 3.6 10.5309 3.824C10.3229 4.048 10.1309 4.504 9.95487 5.192L6.71487 17.456C6.61887 17.808 6.55487 18.136 6.52287 18.44C6.49087 18.744 6.55487 18.992 6.71487 19.184C6.87487 19.36 7.19487 19.448 7.67487 19.448C8.65087 19.448 9.46687 19.216 10.1229 18.752C10.7789 18.288 11.2749 17.672 11.6109 16.904C11.9629 16.136 12.1389 15.296 12.1389 14.384C12.1389 13.808 12.0509 13.296 11.8749 12.848C11.6989 12.4 11.4029 12.048 10.9869 11.792C10.5869 11.52 10.0509 11.384 9.37887 11.384H7.45887ZM20.7719 14.792C21.4279 14.536 22.0519 14.248 22.6439 13.928C23.2359 13.608 23.7399 13.256 24.1559 12.872C24.7799 12.312 25.2759 11.664 25.6439 10.928C26.0279 10.176 26.2199 9.368 26.2199 8.504C26.2199 8.184 26.1879 7.976 26.1239 7.88C26.0599 7.768 25.9639 7.712 25.8359 7.712C25.4839 7.712 25.0999 7.896 24.6839 8.264C24.2839 8.616 23.8839 9.096 23.4839 9.704C23.0839 10.296 22.7159 10.976 22.3799 11.744C22.0599 12.512 21.7959 13.312 21.5879 14.144C21.3959 14.976 21.2999 15.784 21.2999 16.568C21.2999 17.464 21.4679 18.08 21.8039 18.416C22.1559 18.736 22.6039 18.896 23.1479 18.896C23.5799 18.896 24.1159 18.752 24.7559 18.464C25.3959 18.176 26.0279 17.664 26.6519 16.928L27.0359 17.12C26.6999 17.648 26.2599 18.16 25.7159 18.656C25.1719 19.152 24.5399 19.56 23.8199 19.88C23.0999 20.184 22.3159 20.336 21.4679 20.336C20.7479 20.336 20.0999 20.208 19.5239 19.952C18.9639 19.696 18.5159 19.32 18.1799 18.824C17.8599 18.312 17.6999 17.688 17.6999 16.952C17.6999 16.104 17.8359 15.232 18.1079 14.336C18.3959 13.44 18.7959 12.576 19.3079 11.744C19.8199 10.896 20.4359 10.136 21.1559 9.464C21.8759 8.776 22.6759 8.24 23.5559 7.856C24.4359 7.456 25.3719 7.256 26.3639 7.256C27.0679 7.256 27.6599 7.416 28.1399 7.736C28.6199 8.04 28.8599 8.512 28.8599 9.152C28.8599 9.776 28.6839 10.36 28.3319 10.904C27.9959 11.448 27.5399 11.944 26.9639 12.392C26.3879 12.84 25.7399 13.24 25.0199 13.592C24.3159 13.944 23.5879 14.248 22.8359 14.504C22.0999 14.76 21.4039 14.96 20.7479 15.104L20.7719 14.792ZM32.2859 17.96C32.1739 18.376 32.1579 18.68 32.2379 18.872C32.3339 19.064 32.4859 19.16 32.6939 19.16C32.8699 19.16 33.0859 19.048 33.3419 18.824C33.5979 18.584 33.8619 18.064 34.1339 17.264L34.5659 16.112H35.0219L34.4219 17.864C34.1979 18.52 33.9099 19.024 33.5579 19.376C33.2059 19.728 32.8299 19.976 32.4299 20.12C32.0299 20.264 31.6299 20.336 31.2299 20.336C30.7019 20.336 30.2779 20.24 29.9579 20.048C29.6379 19.872 29.3979 19.616 29.2379 19.28C29.0939 18.928 29.0299 18.52 29.0459 18.056C29.0779 17.592 29.1739 17.08 29.3339 16.52L33.1019 3.992C33.2619 3.448 33.2459 3.048 33.0539 2.792C32.8619 2.536 32.3739 2.408 31.5899 2.408L31.7579 1.904C32.9099 1.888 33.9179 1.8 34.7819 1.64C35.6619 1.464 36.5099 1.224 37.3259 0.92L32.2859 17.96ZM39.4812 17.96C39.3692 18.376 39.3532 18.68 39.4332 18.872C39.5292 19.064 39.6812 19.16 39.8892 19.16C40.0652 19.16 40.2812 19.048 40.5372 18.824C40.7932 18.584 41.0572 18.064 41.3292 17.264L41.7612 16.112H42.2172L41.6172 17.864C41.3932 18.52 41.1052 19.024 40.7532 19.376C40.4012 19.728 40.0252 19.976 39.6252 20.12C39.2252 20.264 38.8252 20.336 38.4252 20.336C37.8972 20.336 37.4732 20.24 37.1532 20.048C36.8332 19.872 36.5932 19.616 36.4332 19.28C36.2892 18.928 36.2252 18.52 36.2412 18.056C36.2732 17.592 36.3692 17.08 36.5292 16.52L40.2972 3.992C40.4572 3.448 40.4412 3.048 40.2492 2.792C40.0572 2.536 39.5692 2.408 38.7852 2.408L38.9532 1.904C40.1052 1.888 41.1132 1.8 41.9772 1.64C42.8572 1.464 43.7052 1.224 44.5212 0.92L39.4812 17.96ZM46.4126 14.792C47.0686 14.536 47.6926 14.248 48.2846 13.928C48.8766 13.608 49.3806 13.256 49.7966 12.872C50.4206 12.312 50.9166 11.664 51.2846 10.928C51.6686 10.176 51.8606 9.368 51.8606 8.504C51.8606 8.184 51.8286 7.976 51.7646 7.88C51.7006 7.768 51.6046 7.712 51.4766 7.712C51.1246 7.712 50.7406 7.896 50.3246 8.264C49.9246 8.616 49.5246 9.096 49.1246 9.704C48.7246 10.296 48.3566 10.976 48.0206 11.744C47.7006 12.512 47.4366 13.312 47.2286 14.144C47.0366 14.976 46.9406 15.784 46.9406 16.568C46.9406 17.464 47.1086 18.08 47.4446 18.416C47.7966 18.736 48.2446 18.896 48.7886 18.896C49.2206 18.896 49.7566 18.752 50.3966 18.464C51.0366 18.176 51.6686 17.664 52.2926 16.928L52.6766 17.12C52.3406 17.648 51.9006 18.16 51.3566 18.656C50.8126 19.152 50.1806 19.56 49.4606 19.88C48.7406 20.184 47.9566 20.336 47.1086 20.336C46.3886 20.336 45.7406 20.208 45.1646 19.952C44.6046 19.696 44.1566 19.32 43.8206 18.824C43.5006 18.312 43.3406 17.688 43.3406 16.952C43.3406 16.104 43.4766 15.232 43.7486 14.336C44.0366 13.44 44.4366 12.576 44.9486 11.744C45.4606 10.896 46.0766 10.136 46.7966 9.464C47.5166 8.776 48.3166 8.24 49.1966 7.856C50.0766 7.456 51.0126 7.256 52.0046 7.256C52.7086 7.256 53.3006 7.416 53.7806 7.736C54.2606 8.04 54.5006 8.512 54.5006 9.152C54.5006 9.776 54.3246 10.36 53.9726 10.904C53.6366 11.448 53.1806 11.944 52.6046 12.392C52.0286 12.84 51.3806 13.24 50.6606 13.592C49.9566 13.944 49.2286 14.248 48.4766 14.504C47.7406 14.76 47.0446 14.96 46.3886 15.104L46.4126 14.792Z" fill="#6D1E6D"/>
</svg>
