<svg width="14" height="14" viewBox="0 0 14 14" fill="none" xmlns="http://www.w3.org/2000/svg">
<path d="M2.71429 13V2.052C2.71423 1.81932 2.78041 1.59322 2.90245 1.40919C3.02448 1.22515 3.19545 1.09363 3.38851 1.03526C3.58157 0.976888 3.78578 0.994986 3.96907 1.08671C4.15235 1.17843 4.30433 1.33858 4.40114 1.542L9.59886 12.458C9.69567 12.6614 9.84765 12.8216 10.0309 12.9133C10.2142 13.005 10.4184 13.0231 10.6115 12.9647C10.8045 12.9064 10.9755 12.7748 11.0976 12.5908C11.2196 12.4068 11.2858 12.1807 11.2857 11.948V1M1 5H13M1 9H13" stroke="#333333" stroke-width="1.5" stroke-linecap="round" stroke-linejoin="round"/>
</svg>
