<svg width="511" height="57" viewBox="0 0 511 57" fill="none" xmlns="http://www.w3.org/2000/svg">
<path d="M20.824 40V39.44C21.44 39.4027 21.8973 39.328 22.196 39.216C22.5133 39.104 22.7187 38.88 22.812 38.544C22.924 38.208 22.98 37.704 22.98 37.032V23.144C22.98 22.4533 22.924 21.9493 22.812 21.632C22.7187 21.296 22.5133 21.072 22.196 20.96C21.8973 20.8293 21.44 20.7547 20.824 20.736V20.176C21.328 20.1947 21.9533 20.2133 22.7 20.232C23.4467 20.2507 24.1933 20.26 24.94 20.26C25.7613 20.26 26.5267 20.2507 27.236 20.232C27.964 20.2133 28.5427 20.1947 28.972 20.176V20.736C28.3747 20.7547 27.9173 20.8293 27.6 20.96C27.3013 21.072 27.096 21.296 26.984 21.632C26.872 21.9493 26.816 22.4533 26.816 23.144V37.032C26.816 37.704 26.872 38.208 26.984 38.544C27.096 38.88 27.3013 39.104 27.6 39.216C27.9173 39.328 28.3747 39.4027 28.972 39.44V40C28.5427 39.9627 27.964 39.944 27.236 39.944C26.5267 39.9253 25.7613 39.916 24.94 39.916C24.1933 39.916 23.4467 39.9253 22.7 39.944C21.9533 39.944 21.328 39.9627 20.824 40ZM9.008 40V39.44C9.624 39.4027 10.0813 39.328 10.38 39.216C10.6973 39.104 10.9027 38.88 10.996 38.544C11.108 38.208 11.164 37.704 11.164 37.032V23.144C11.164 22.4533 11.108 21.9493 10.996 21.632C10.9027 21.296 10.6973 21.072 10.38 20.96C10.0813 20.8293 9.624 20.7547 9.008 20.736V20.176C9.47467 20.1947 10.072 20.2133 10.8 20.232C11.528 20.2507 12.312 20.26 13.152 20.26C13.8987 20.26 14.636 20.2507 15.364 20.232C16.092 20.2133 16.6893 20.1947 17.156 20.176V20.736C16.5587 20.7547 16.1013 20.8293 15.784 20.96C15.4853 21.072 15.28 21.296 15.168 21.632C15.056 21.9493 15 22.4533 15 23.144V37.032C15 37.704 15.056 38.208 15.168 38.544C15.28 38.88 15.4853 39.104 15.784 39.216C16.1013 39.328 16.5587 39.4027 17.156 39.44V40C16.6893 39.9627 16.092 39.944 15.364 39.944C14.636 39.9253 13.8987 39.916 13.152 39.916C12.312 39.916 11.528 39.9253 10.8 39.944C10.072 39.944 9.47467 39.9627 9.008 40ZM13.46 30.312V29.752H24.52V30.312H13.46ZM37.3322 25.132C38.6202 25.132 39.7589 25.3933 40.7482 25.916C41.7562 26.42 42.5495 27.232 43.1282 28.352C43.7255 29.472 44.0242 30.9467 44.0242 32.776C44.0242 34.6053 43.7255 36.08 43.1282 37.2C42.5495 38.32 41.7562 39.132 40.7482 39.636C39.7589 40.14 38.6202 40.392 37.3322 40.392C36.0442 40.392 34.8962 40.14 33.8882 39.636C32.8802 39.132 32.0869 38.32 31.5082 37.2C30.9295 36.08 30.6402 34.6053 30.6402 32.776C30.6402 30.9467 30.9295 29.472 31.5082 28.352C32.0869 27.232 32.8802 26.42 33.8882 25.916C34.8962 25.3933 36.0442 25.132 37.3322 25.132ZM37.3322 25.692C36.4549 25.692 35.7362 26.252 35.1762 27.372C34.6349 28.4733 34.3642 30.2747 34.3642 32.776C34.3642 35.2773 34.6349 37.0787 35.1762 38.18C35.7362 39.2813 36.4549 39.832 37.3322 39.832C38.1909 39.832 38.9002 39.2813 39.4602 38.18C40.0202 37.0787 40.3002 35.2773 40.3002 32.776C40.3002 30.2747 40.0202 28.4733 39.4602 27.372C38.9002 26.252 38.1909 25.692 37.3322 25.692ZM55.7168 25.132C56.4448 25.132 57.0515 25.2347 57.5368 25.44C58.0408 25.6453 58.4328 25.9067 58.7128 26.224C59.0488 26.5787 59.2821 27.0547 59.4128 27.652C59.5435 28.2307 59.6088 28.968 59.6088 29.864V37.396C59.6088 38.18 59.7395 38.712 60.0008 38.992C60.2808 39.272 60.7475 39.412 61.4008 39.412V40C61.0648 39.9813 60.5608 39.9627 59.8888 39.944C59.2168 39.9067 58.5635 39.888 57.9288 39.888C57.2568 39.888 56.6035 39.9067 55.9688 39.944C55.3528 39.9627 54.8861 39.9813 54.5688 40V39.412C55.1101 39.412 55.4928 39.272 55.7168 38.992C55.9595 38.712 56.0808 38.18 56.0808 37.396V28.912C56.0808 28.408 56.0435 27.96 55.9688 27.568C55.8941 27.1573 55.7355 26.84 55.4928 26.616C55.2501 26.3733 54.8768 26.252 54.3728 26.252C53.7941 26.252 53.2715 26.42 52.8048 26.756C52.3381 27.092 51.9648 27.5587 51.6848 28.156C51.4235 28.7347 51.2928 29.388 51.2928 30.116V37.396C51.2928 38.18 51.4048 38.712 51.6288 38.992C51.8528 39.272 52.2448 39.412 52.8048 39.412V40C52.4875 39.9813 52.0208 39.9627 51.4048 39.944C50.8075 39.9067 50.1915 39.888 49.5568 39.888C48.8661 39.888 48.1661 39.9067 47.4568 39.944C46.7475 39.9627 46.2155 39.9813 45.8608 40V39.412C46.5515 39.412 47.0368 39.272 47.3168 38.992C47.6155 38.712 47.7648 38.18 47.7648 37.396V28.576C47.7648 27.736 47.6248 27.12 47.3448 26.728C47.0835 26.3173 46.5888 26.112 45.8608 26.112V25.524C46.4581 25.58 47.0368 25.608 47.5968 25.608C48.2875 25.608 48.9408 25.58 49.5568 25.524C50.1915 25.4493 50.7701 25.3467 51.2928 25.216V28.016C51.7595 26.9893 52.3848 26.252 53.1688 25.804C53.9528 25.356 54.8021 25.132 55.7168 25.132ZM64.1448 25.132C64.8728 25.132 65.4795 25.2347 65.9648 25.44C66.4688 25.6453 66.8608 25.9067 67.1408 26.224C67.4768 26.5787 67.7101 27.0547 67.8408 27.652C67.9715 28.2307 68.0368 28.968 68.0368 29.864V37.396C68.0368 38.18 68.1768 38.712 68.4568 38.992C68.7555 39.272 69.2501 39.412 69.9408 39.412V40C69.6048 39.9813 69.0821 39.9627 68.3728 39.944C67.6821 39.9067 67.0101 39.888 66.3568 39.888C65.6848 39.888 65.0315 39.9067 64.3968 39.944C63.7808 39.9627 63.3141 39.9813 62.9968 40V39.412C63.5381 39.412 63.9208 39.272 64.1448 38.992C64.3875 38.712 64.5088 38.18 64.5088 37.396V28.912C64.5088 28.408 64.4621 27.96 64.3688 27.568C64.2941 27.1573 64.1261 26.84 63.8648 26.616C63.6035 26.3733 63.2115 26.252 62.6888 26.252C62.1101 26.252 61.5875 26.4293 61.1208 26.784C60.6541 27.1387 60.2808 27.6147 60.0008 28.212C59.7395 28.7907 59.5995 29.444 59.5808 30.172L59.4408 28.156C59.9448 26.9987 60.6168 26.2053 61.4568 25.776C62.2968 25.3467 63.1928 25.132 64.1448 25.132ZM78.1004 25.132C79.7431 25.132 81.0311 25.6267 81.9644 26.616C82.8977 27.6053 83.3644 29.1827 83.3644 31.348H73.9284L73.9004 30.816H80.1164C80.1537 29.9013 80.0977 29.0613 79.9484 28.296C79.7991 27.512 79.5564 26.8867 79.2204 26.42C78.9031 25.9533 78.4831 25.72 77.9604 25.72C77.2511 25.72 76.6351 26.14 76.1124 26.98C75.5897 27.8013 75.2631 29.1547 75.1324 31.04L75.2444 31.208C75.2071 31.4507 75.1791 31.712 75.1604 31.992C75.1604 32.272 75.1604 32.552 75.1604 32.832C75.1604 34.12 75.3471 35.184 75.7204 36.024C76.0937 36.864 76.5791 37.48 77.1764 37.872C77.7737 38.264 78.3897 38.46 79.0244 38.46C79.4537 38.46 79.8924 38.3947 80.3404 38.264C80.7884 38.1333 81.2271 37.8907 81.6564 37.536C82.0857 37.1813 82.4777 36.6773 82.8324 36.024L83.3644 36.248C83.1591 36.9013 82.8137 37.5547 82.3284 38.208C81.8617 38.8427 81.2551 39.3653 80.5084 39.776C79.7617 40.1867 78.8844 40.392 77.8764 40.392C76.6071 40.392 75.4871 40.112 74.5164 39.552C73.5457 38.992 72.7897 38.1613 72.2484 37.06C71.7071 35.94 71.4364 34.5773 71.4364 32.972C71.4364 31.2733 71.7164 29.8453 72.2764 28.688C72.8551 27.5307 73.6484 26.6533 74.6564 26.056C75.6644 25.44 76.8124 25.132 78.1004 25.132Z" fill="#333333"/>
<path d="M152.172 15.84C153.217 15.84 154.02 15.952 154.58 16.176C155.14 16.4 155.625 16.6427 156.036 16.904C156.26 17.0347 156.437 17.1373 156.568 17.212C156.717 17.268 156.857 17.296 156.988 17.296C157.175 17.296 157.305 17.1933 157.38 16.988C157.473 16.7827 157.548 16.4747 157.604 16.064H158.248C158.229 16.4187 158.201 16.8293 158.164 17.296C158.145 17.7627 158.127 18.388 158.108 19.172C158.108 19.9373 158.108 20.9547 158.108 22.224H157.464C157.408 21.272 157.193 20.3573 156.82 19.48C156.465 18.6027 155.952 17.884 155.28 17.324C154.627 16.7453 153.787 16.456 152.76 16.456C151.845 16.456 151.08 16.7267 150.464 17.268C149.867 17.8093 149.568 18.5373 149.568 19.452C149.568 20.236 149.764 20.8987 150.156 21.44C150.548 21.9627 151.099 22.476 151.808 22.98C152.536 23.4653 153.395 24.0253 154.384 24.66C155.299 25.2573 156.12 25.8547 156.848 26.452C157.576 27.0307 158.145 27.6747 158.556 28.384C158.985 29.0933 159.2 29.9613 159.2 30.988C159.2 32.2013 158.901 33.2093 158.304 34.012C157.707 34.8147 156.904 35.412 155.896 35.804C154.888 36.196 153.787 36.392 152.592 36.392C151.491 36.392 150.613 36.28 149.96 36.056C149.325 35.832 148.775 35.5987 148.308 35.356C147.897 35.0947 147.58 34.964 147.356 34.964C147.169 34.964 147.029 35.0667 146.936 35.272C146.861 35.4773 146.796 35.7853 146.74 36.196H146.096C146.133 35.7667 146.152 35.2627 146.152 34.684C146.171 34.1053 146.18 33.3587 146.18 32.444C146.199 31.5107 146.208 30.3347 146.208 28.916H146.852C146.927 30.1107 147.132 31.2307 147.468 32.276C147.823 33.3027 148.355 34.1333 149.064 34.768C149.792 35.4027 150.753 35.72 151.948 35.72C152.601 35.72 153.189 35.608 153.712 35.384C154.253 35.1413 154.683 34.7773 155 34.292C155.317 33.788 155.476 33.1533 155.476 32.388C155.476 31.6227 155.299 30.9507 154.944 30.372C154.589 29.7933 154.095 29.252 153.46 28.748C152.825 28.244 152.079 27.7307 151.22 27.208C150.343 26.648 149.521 26.0787 148.756 25.5C147.991 24.9213 147.375 24.268 146.908 23.54C146.46 22.7933 146.236 21.8973 146.236 20.852C146.236 19.6947 146.516 18.752 147.076 18.024C147.636 17.2773 148.364 16.7267 149.26 16.372C150.175 16.0173 151.145 15.84 152.172 15.84ZM166.296 14.076V23.988C166.763 22.9427 167.407 22.2053 168.228 21.776C169.068 21.3467 169.973 21.132 170.944 21.132C171.709 21.132 172.335 21.2347 172.82 21.44C173.305 21.6453 173.697 21.9067 173.996 22.224C174.313 22.5787 174.537 23.036 174.668 23.596C174.817 24.156 174.892 24.912 174.892 25.864V33.396C174.892 34.18 175.032 34.712 175.312 34.992C175.611 35.272 176.105 35.412 176.796 35.412V36C176.46 35.9813 175.947 35.9627 175.256 35.944C174.565 35.9067 173.884 35.888 173.212 35.888C172.54 35.888 171.877 35.9067 171.224 35.944C170.571 35.9627 170.076 35.9813 169.74 36V35.412C170.337 35.412 170.757 35.272 171 34.992C171.243 34.712 171.364 34.18 171.364 33.396V24.912C171.364 24.408 171.317 23.96 171.224 23.568C171.131 23.1573 170.944 22.84 170.664 22.616C170.403 22.3733 170.001 22.252 169.46 22.252C168.863 22.252 168.321 22.42 167.836 22.756C167.369 23.0733 166.996 23.5307 166.716 24.128C166.436 24.7067 166.296 25.3693 166.296 26.116V33.396C166.296 34.18 166.417 34.712 166.66 34.992C166.921 35.272 167.341 35.412 167.92 35.412V36C167.603 35.9813 167.127 35.9627 166.492 35.944C165.876 35.9067 165.232 35.888 164.56 35.888C163.888 35.888 163.188 35.9067 162.46 35.944C161.751 35.9627 161.219 35.9813 160.864 36V35.412C161.555 35.412 162.04 35.272 162.32 34.992C162.619 34.712 162.768 34.18 162.768 33.396V17.436C162.768 16.596 162.628 15.98 162.348 15.588C162.087 15.1773 161.592 14.972 160.864 14.972V14.384C161.461 14.44 162.04 14.468 162.6 14.468C163.309 14.468 163.972 14.44 164.588 14.384C165.204 14.3093 165.773 14.2067 166.296 14.076ZM185.016 21.132C186.304 21.132 187.442 21.3933 188.432 21.916C189.44 22.42 190.233 23.232 190.812 24.352C191.409 25.472 191.708 26.9467 191.708 28.776C191.708 30.6053 191.409 32.08 190.812 33.2C190.233 34.32 189.44 35.132 188.432 35.636C187.442 36.14 186.304 36.392 185.016 36.392C183.728 36.392 182.58 36.14 181.572 35.636C180.564 35.132 179.77 34.32 179.192 33.2C178.613 32.08 178.324 30.6053 178.324 28.776C178.324 26.9467 178.613 25.472 179.192 24.352C179.77 23.232 180.564 22.42 181.572 21.916C182.58 21.3933 183.728 21.132 185.016 21.132ZM185.016 21.692C184.138 21.692 183.42 22.252 182.86 23.372C182.318 24.4733 182.048 26.2747 182.048 28.776C182.048 31.2773 182.318 33.0787 182.86 34.18C183.42 35.2813 184.138 35.832 185.016 35.832C185.874 35.832 186.584 35.2813 187.144 34.18C187.704 33.0787 187.984 31.2773 187.984 28.776C187.984 26.2747 187.704 24.4733 187.144 23.372C186.584 22.252 185.874 21.692 185.016 21.692ZM198.808 21.244V38.352C198.808 39.192 199.032 39.752 199.48 40.032C199.947 40.3307 200.582 40.48 201.384 40.48V41.068C200.936 41.0493 200.302 41.0213 199.48 40.984C198.678 40.9653 197.819 40.956 196.904 40.956C196.27 40.956 195.635 40.9653 195 40.984C194.366 41.0213 193.88 41.0493 193.544 41.068V40.48C194.179 40.48 194.627 40.3493 194.888 40.088C195.15 39.8267 195.28 39.3413 195.28 38.632V24.604C195.28 23.764 195.15 23.148 194.888 22.756C194.627 22.3453 194.123 22.14 193.376 22.14V21.552C193.974 21.608 194.552 21.636 195.112 21.636C195.822 21.636 196.484 21.608 197.1 21.552C197.716 21.4773 198.286 21.3747 198.808 21.244ZM203.204 21.132C204.175 21.132 205.043 21.4027 205.808 21.944C206.574 22.4667 207.171 23.2413 207.6 24.268C208.048 25.2947 208.272 26.5827 208.272 28.132C208.272 29.364 208.132 30.4933 207.852 31.52C207.572 32.528 207.152 33.396 206.592 34.124C206.051 34.852 205.379 35.412 204.576 35.804C203.774 36.196 202.859 36.392 201.832 36.392C201.048 36.392 200.348 36.2427 199.732 35.944C199.116 35.6453 198.668 35.244 198.388 34.74L198.668 34.348C198.892 34.74 199.2 35.0573 199.592 35.3C199.984 35.5427 200.451 35.664 200.992 35.664C201.888 35.664 202.598 35.3747 203.12 34.796C203.643 34.1987 204.007 33.368 204.212 32.304C204.436 31.24 204.548 30.008 204.548 28.608C204.548 27.0587 204.446 25.8173 204.24 24.884C204.035 23.9507 203.727 23.2787 203.316 22.868C202.906 22.4387 202.42 22.224 201.86 22.224C201.095 22.224 200.404 22.532 199.788 23.148C199.191 23.7453 198.827 24.6227 198.696 25.78L198.5 24.996C198.799 23.764 199.368 22.812 200.208 22.14C201.048 21.468 202.047 21.132 203.204 21.132Z" fill="#6D1E6D"/>
<rect x="141" y="45" width="72" height="4" rx="2" fill="#6D1E6D"/>
<path d="M278.884 20.092L285.688 37.648C285.968 38.32 286.267 38.7867 286.584 39.048C286.92 39.2907 287.228 39.4213 287.508 39.44V40C287.023 39.9627 286.435 39.944 285.744 39.944C285.072 39.9253 284.381 39.916 283.672 39.916C282.851 39.916 282.085 39.9253 281.376 39.944C280.667 39.944 280.088 39.9627 279.64 40V39.44C280.592 39.4027 281.199 39.244 281.46 38.964C281.721 38.6653 281.665 38.04 281.292 37.088L276.364 23.788L276.868 23.172L272.388 34.792C272.033 35.7253 271.819 36.4907 271.744 37.088C271.669 37.6853 271.716 38.152 271.884 38.488C272.052 38.824 272.332 39.0667 272.724 39.216C273.116 39.3467 273.601 39.4213 274.18 39.44V40C273.583 39.9627 273.004 39.944 272.444 39.944C271.884 39.9253 271.324 39.916 270.764 39.916C270.353 39.916 269.961 39.9253 269.588 39.944C269.233 39.944 268.916 39.9627 268.636 40V39.44C269.047 39.3467 269.448 39.104 269.84 38.712C270.251 38.32 270.643 37.6387 271.016 36.668L277.428 20.092C277.652 20.1107 277.895 20.12 278.156 20.12C278.417 20.12 278.66 20.1107 278.884 20.092ZM281.32 31.936V32.496H272.976L273.256 31.936H281.32ZM297.26 25.132C298.716 25.132 299.929 25.748 300.9 26.98C301.889 28.1933 302.384 30.0413 302.384 32.524C302.384 34.372 302.094 35.884 301.516 37.06C300.937 38.2173 300.162 39.0667 299.192 39.608C298.221 40.1307 297.166 40.392 296.028 40.392C295.225 40.392 294.45 40.224 293.704 39.888C292.976 39.5333 292.388 38.9827 291.94 38.236H292.416C292.789 38.7587 293.237 39.1507 293.76 39.412C294.301 39.6547 294.842 39.776 295.384 39.776C296.485 39.776 297.306 39.2067 297.848 38.068C298.389 36.9107 298.66 35.1467 298.66 32.776C298.66 31.208 298.548 29.948 298.324 28.996C298.118 28.0253 297.81 27.3253 297.4 26.896C296.989 26.448 296.476 26.224 295.86 26.224C295.132 26.224 294.46 26.532 293.844 27.148C293.246 27.764 292.901 28.6413 292.808 29.78L292.612 28.996C292.91 27.764 293.47 26.812 294.292 26.14C295.132 25.468 296.121 25.132 297.26 25.132ZM292.92 18.076V39.16C292.528 39.1787 292.126 39.2533 291.716 39.384C291.305 39.496 290.922 39.6453 290.568 39.832C290.213 40 289.905 40.2053 289.644 40.448L289.196 40.224C289.289 39.9627 289.345 39.7013 289.364 39.44C289.382 39.1787 289.392 38.908 289.392 38.628V21.436C289.392 20.596 289.252 19.98 288.972 19.588C288.71 19.1773 288.216 18.972 287.488 18.972V18.384C288.085 18.44 288.664 18.468 289.224 18.468C289.933 18.468 290.596 18.44 291.212 18.384C291.828 18.3093 292.397 18.2067 292.92 18.076ZM311.375 25.132C312.663 25.132 313.802 25.3933 314.791 25.916C315.799 26.42 316.592 27.232 317.171 28.352C317.768 29.472 318.067 30.9467 318.067 32.776C318.067 34.6053 317.768 36.08 317.171 37.2C316.592 38.32 315.799 39.132 314.791 39.636C313.802 40.14 312.663 40.392 311.375 40.392C310.087 40.392 308.939 40.14 307.931 39.636C306.923 39.132 306.13 38.32 305.551 37.2C304.972 36.08 304.683 34.6053 304.683 32.776C304.683 30.9467 304.972 29.472 305.551 28.352C306.13 27.232 306.923 26.42 307.931 25.916C308.939 25.3933 310.087 25.132 311.375 25.132ZM311.375 25.692C310.498 25.692 309.779 26.252 309.219 27.372C308.678 28.4733 308.407 30.2747 308.407 32.776C308.407 35.2773 308.678 37.0787 309.219 38.18C309.779 39.2813 310.498 39.832 311.375 39.832C312.234 39.832 312.943 39.2813 313.503 38.18C314.063 37.0787 314.343 35.2773 314.343 32.776C314.343 30.2747 314.063 28.4733 313.503 27.372C312.943 26.252 312.234 25.692 311.375 25.692ZM333.428 25.216V36.976C333.428 37.816 333.568 38.4413 333.848 38.852C334.128 39.244 334.622 39.44 335.332 39.44V40.028C334.753 39.972 334.174 39.944 333.596 39.944C332.905 39.944 332.242 39.972 331.608 40.028C330.992 40.084 330.422 40.1867 329.9 40.336V37.536C329.433 38.5627 328.789 39.3 327.968 39.748C327.165 40.1773 326.297 40.392 325.364 40.392C324.636 40.392 324.02 40.2893 323.516 40.084C323.03 39.8973 322.638 39.636 322.34 39.3C322.022 38.9453 321.798 38.4787 321.668 37.9C321.537 37.3213 321.472 36.5747 321.472 35.66V28.576C321.472 27.736 321.332 27.12 321.052 26.728C320.79 26.3173 320.296 26.112 319.568 26.112V25.524C320.165 25.58 320.744 25.608 321.304 25.608C321.994 25.608 322.648 25.58 323.264 25.524C323.898 25.4493 324.477 25.3467 325 25.216V36.64C325 37.144 325.037 37.592 325.112 37.984C325.205 38.376 325.382 38.6933 325.644 38.936C325.905 39.16 326.297 39.272 326.82 39.272C327.398 39.272 327.921 39.104 328.388 38.768C328.854 38.432 329.218 37.9747 329.48 37.396C329.76 36.8173 329.9 36.164 329.9 35.436V28.576C329.9 27.736 329.76 27.12 329.48 26.728C329.218 26.3173 328.724 26.112 327.996 26.112V25.524C328.593 25.58 329.172 25.608 329.732 25.608C330.422 25.608 331.076 25.58 331.692 25.524C332.326 25.4493 332.905 25.3467 333.428 25.216ZM341.903 20.932V25.552H345.487V26.112H341.903V37.256C341.903 37.928 342.024 38.404 342.267 38.684C342.509 38.964 342.855 39.104 343.303 39.104C343.732 39.104 344.124 38.9453 344.479 38.628C344.833 38.292 345.151 37.7413 345.431 36.976L345.935 37.2C345.655 38.1147 345.216 38.88 344.619 39.496C344.04 40.0933 343.219 40.392 342.155 40.392C341.52 40.392 340.979 40.308 340.531 40.14C340.101 39.9907 339.728 39.7667 339.411 39.468C339 39.0387 338.72 38.5253 338.571 37.928C338.44 37.3307 338.375 36.5373 338.375 35.548V26.112H335.911V25.552H338.375V21.66C339.047 21.6413 339.672 21.576 340.251 21.464C340.829 21.352 341.38 21.1747 341.903 20.932Z" fill="#333333"/>
<path d="M412.864 19.784C414.096 19.784 415.104 19.9707 415.888 20.344C416.691 20.6987 417.4 21.1187 418.016 21.604C418.389 21.884 418.669 21.9213 418.856 21.716C419.061 21.492 419.201 20.9787 419.276 20.176H419.92C419.883 20.8853 419.855 21.7533 419.836 22.78C419.817 23.8067 419.808 25.16 419.808 26.84H419.164C419.052 26 418.931 25.3 418.8 24.74C418.669 24.1613 418.483 23.6667 418.24 23.256C418.016 22.8453 417.699 22.4533 417.288 22.08C416.784 21.52 416.177 21.1093 415.468 20.848C414.777 20.568 414.049 20.428 413.284 20.428C412.313 20.428 411.464 20.6893 410.736 21.212C410.027 21.716 409.429 22.416 408.944 23.312C408.477 24.1893 408.123 25.216 407.88 26.392C407.656 27.568 407.544 28.8187 407.544 30.144C407.544 31.5067 407.665 32.776 407.908 33.952C408.169 35.1093 408.543 36.1267 409.028 37.004C409.532 37.8627 410.148 38.5347 410.876 39.02C411.623 39.5053 412.481 39.748 413.452 39.748C414.143 39.748 414.852 39.6173 415.58 39.356C416.308 39.0947 416.905 38.6933 417.372 38.152C417.988 37.592 418.408 36.9293 418.632 36.164C418.856 35.38 419.033 34.344 419.164 33.056H419.808C419.808 34.8107 419.817 36.2293 419.836 37.312C419.855 38.376 419.883 39.272 419.92 40H419.276C419.201 39.1973 419.071 38.6933 418.884 38.488C418.716 38.2827 418.427 38.3107 418.016 38.572C417.325 39.0573 416.588 39.4867 415.804 39.86C415.039 40.2147 414.049 40.392 412.836 40.392C410.932 40.392 409.261 39.9907 407.824 39.188C406.387 38.3853 405.267 37.228 404.464 35.716C403.68 34.204 403.288 32.384 403.288 30.256C403.288 28.1653 403.699 26.336 404.52 24.768C405.341 23.2 406.471 21.9773 407.908 21.1C409.345 20.2227 410.997 19.784 412.864 19.784ZM429.445 25.132C430.733 25.132 431.872 25.3933 432.861 25.916C433.869 26.42 434.663 27.232 435.241 28.352C435.839 29.472 436.137 30.9467 436.137 32.776C436.137 34.6053 435.839 36.08 435.241 37.2C434.663 38.32 433.869 39.132 432.861 39.636C431.872 40.14 430.733 40.392 429.445 40.392C428.157 40.392 427.009 40.14 426.001 39.636C424.993 39.132 424.2 38.32 423.621 37.2C423.043 36.08 422.753 34.6053 422.753 32.776C422.753 30.9467 423.043 29.472 423.621 28.352C424.2 27.232 424.993 26.42 426.001 25.916C427.009 25.3933 428.157 25.132 429.445 25.132ZM429.445 25.692C428.568 25.692 427.849 26.252 427.289 27.372C426.748 28.4733 426.477 30.2747 426.477 32.776C426.477 35.2773 426.748 37.0787 427.289 38.18C427.849 39.2813 428.568 39.832 429.445 39.832C430.304 39.832 431.013 39.2813 431.573 38.18C432.133 37.0787 432.413 35.2773 432.413 32.776C432.413 30.2747 432.133 28.4733 431.573 27.372C431.013 26.252 430.304 25.692 429.445 25.692ZM448.026 25.132C448.81 25.132 449.435 25.2347 449.902 25.44C450.387 25.6453 450.779 25.9067 451.078 26.224C451.414 26.5787 451.647 27.036 451.778 27.596C451.927 28.156 452.002 28.912 452.002 29.864V37.396C452.002 38.18 452.142 38.712 452.422 38.992C452.721 39.272 453.215 39.412 453.906 39.412V40C453.57 39.9813 453.047 39.9627 452.338 39.944C451.647 39.9067 450.975 39.888 450.322 39.888C449.631 39.888 448.959 39.9067 448.306 39.944C447.653 39.9627 447.167 39.9813 446.85 40V39.412C447.447 39.412 447.867 39.272 448.11 38.992C448.353 38.712 448.474 38.18 448.474 37.396V28.912C448.474 28.408 448.427 27.96 448.334 27.568C448.241 27.1573 448.054 26.84 447.774 26.616C447.494 26.3733 447.093 26.252 446.57 26.252C445.954 26.252 445.403 26.42 444.918 26.756C444.451 27.092 444.078 27.5587 443.798 28.156C443.537 28.7347 443.406 29.388 443.406 30.116V37.396C443.406 38.18 443.527 38.712 443.77 38.992C444.013 39.272 444.433 39.412 445.03 39.412V40C444.713 39.9813 444.237 39.9627 443.602 39.944C442.967 39.9067 442.323 39.888 441.67 39.888C440.979 39.888 440.279 39.9067 439.57 39.944C438.861 39.9627 438.329 39.9813 437.974 40V39.412C438.665 39.412 439.15 39.272 439.43 38.992C439.729 38.712 439.878 38.18 439.878 37.396V28.576C439.878 27.736 439.738 27.12 439.458 26.728C439.197 26.3173 438.702 26.112 437.974 26.112V25.524C438.571 25.58 439.15 25.608 439.71 25.608C440.401 25.608 441.054 25.58 441.67 25.524C442.305 25.4493 442.883 25.3467 443.406 25.216V28.016C443.873 26.952 444.517 26.2053 445.338 25.776C446.159 25.3467 447.055 25.132 448.026 25.132ZM460.301 20.932V25.552H463.885V26.112H460.301V37.256C460.301 37.928 460.423 38.404 460.665 38.684C460.908 38.964 461.253 39.104 461.701 39.104C462.131 39.104 462.523 38.9453 462.877 38.628C463.232 38.292 463.549 37.7413 463.829 36.976L464.333 37.2C464.053 38.1147 463.615 38.88 463.017 39.496C462.439 40.0933 461.617 40.392 460.553 40.392C459.919 40.392 459.377 40.308 458.929 40.14C458.5 39.9907 458.127 39.7667 457.809 39.468C457.399 39.0387 457.119 38.5253 456.969 37.928C456.839 37.3307 456.773 36.5373 456.773 35.548V26.112H454.309V25.552H456.773V21.66C457.445 21.6413 458.071 21.576 458.649 21.464C459.228 21.352 459.779 21.1747 460.301 20.932ZM468.745 40.196C467.942 40.196 467.261 40.0467 466.701 39.748C466.141 39.4307 465.721 39.0107 465.441 38.488C465.161 37.9467 465.021 37.3493 465.021 36.696C465.021 35.8933 465.208 35.24 465.581 34.736C465.954 34.2133 466.43 33.8027 467.009 33.504C467.606 33.1867 468.232 32.9253 468.885 32.72C469.538 32.496 470.154 32.2907 470.733 32.104C471.312 31.8987 471.788 31.6653 472.161 31.404C472.534 31.1427 472.721 30.7973 472.721 30.368V28.324C472.721 27.7267 472.628 27.2413 472.441 26.868C472.273 26.476 472.012 26.1867 471.657 26C471.321 25.7947 470.892 25.692 470.369 25.692C469.977 25.692 469.566 25.748 469.137 25.86C468.708 25.972 468.353 26.1867 468.073 26.504C468.558 26.6347 468.932 26.8773 469.193 27.232C469.473 27.5867 469.613 28.016 469.613 28.52C469.613 29.0987 469.417 29.556 469.025 29.892C468.652 30.2093 468.176 30.368 467.597 30.368C466.981 30.368 466.514 30.172 466.197 29.78C465.88 29.388 465.721 28.9307 465.721 28.408C465.721 27.8853 465.852 27.456 466.113 27.12C466.374 26.7653 466.738 26.448 467.205 26.168C467.672 25.8507 468.269 25.5987 468.997 25.412C469.725 25.2253 470.518 25.132 471.377 25.132C472.198 25.132 472.926 25.2253 473.561 25.412C474.196 25.58 474.737 25.888 475.185 26.336C475.633 26.7653 475.922 27.2973 476.053 27.932C476.184 28.5667 476.249 29.3413 476.249 30.256V37.928C476.249 38.3947 476.305 38.7307 476.417 38.936C476.529 39.1227 476.706 39.216 476.949 39.216C477.136 39.216 477.313 39.1693 477.481 39.076C477.649 38.9827 477.836 38.852 478.041 38.684L478.349 39.16C477.938 39.4773 477.509 39.7293 477.061 39.916C476.613 40.1027 476.072 40.196 475.437 40.196C474.784 40.196 474.261 40.1027 473.869 39.916C473.496 39.7293 473.216 39.4587 473.029 39.104C472.861 38.7493 472.768 38.3293 472.749 37.844C472.301 38.5907 471.75 39.1693 471.097 39.58C470.444 39.9907 469.66 40.196 468.745 40.196ZM470.425 38.628C470.873 38.628 471.284 38.5067 471.657 38.264C472.049 38.0213 472.404 37.6573 472.721 37.172V31.516C472.534 31.796 472.264 32.048 471.909 32.272C471.573 32.496 471.209 32.72 470.817 32.944C470.425 33.168 470.052 33.4293 469.697 33.728C469.361 34.008 469.072 34.3627 468.829 34.792C468.605 35.2027 468.493 35.7347 468.493 36.388C468.493 37.116 468.67 37.676 469.025 38.068C469.38 38.4413 469.846 38.628 470.425 38.628ZM486.322 25.132C487.012 25.132 487.647 25.216 488.226 25.384C488.823 25.5333 489.336 25.748 489.766 26.028C490.214 26.308 490.568 26.6627 490.83 27.092C491.091 27.5027 491.222 27.96 491.222 28.464C491.222 29.08 491.035 29.5747 490.662 29.948C490.288 30.3213 489.822 30.508 489.262 30.508C488.683 30.508 488.207 30.34 487.834 30.004C487.479 29.668 487.302 29.22 487.302 28.66C487.302 28.1187 487.46 27.6707 487.778 27.316C488.095 26.9613 488.478 26.728 488.926 26.616C488.758 26.3733 488.496 26.1773 488.142 26.028C487.787 25.86 487.395 25.776 486.966 25.776C486.406 25.776 485.902 25.9253 485.454 26.224C485.006 26.504 484.614 26.9333 484.278 27.512C483.96 28.072 483.708 28.772 483.522 29.612C483.354 30.4333 483.27 31.3853 483.27 32.468C483.27 33.98 483.447 35.1747 483.802 36.052C484.175 36.9293 484.651 37.5547 485.23 37.928C485.808 38.2827 486.424 38.46 487.078 38.46C487.47 38.46 487.89 38.3853 488.338 38.236C488.786 38.0867 489.224 37.8347 489.654 37.48C490.102 37.1253 490.503 36.6213 490.858 35.968L491.39 36.164C491.184 36.8173 490.848 37.4707 490.382 38.124C489.934 38.7773 489.346 39.3187 488.618 39.748C487.89 40.1773 487.003 40.392 485.958 40.392C484.763 40.392 483.68 40.1213 482.71 39.58C481.739 39.02 480.964 38.18 480.386 37.06C479.826 35.94 479.546 34.5493 479.546 32.888C479.546 31.2453 479.835 29.8547 480.414 28.716C480.992 27.5587 481.795 26.672 482.822 26.056C483.867 25.44 485.034 25.132 486.322 25.132ZM498.254 20.932V25.552H501.838V26.112H498.254V37.256C498.254 37.928 498.376 38.404 498.618 38.684C498.861 38.964 499.206 39.104 499.654 39.104C500.084 39.104 500.476 38.9453 500.83 38.628C501.185 38.292 501.502 37.7413 501.782 36.976L502.286 37.2C502.006 38.1147 501.568 38.88 500.97 39.496C500.392 40.0933 499.57 40.392 498.506 40.392C497.872 40.392 497.33 40.308 496.882 40.14C496.453 39.9907 496.08 39.7667 495.762 39.468C495.352 39.0387 495.072 38.5253 494.922 37.928C494.792 37.3307 494.726 36.5373 494.726 35.548V26.112H492.262V25.552H494.726V21.66C495.398 21.6413 496.024 21.576 496.602 21.464C497.181 21.352 497.732 21.1747 498.254 20.932Z" fill="#333333"/>
</svg>
