<svg width="17" height="17" viewBox="0 0 17 17" fill="none" xmlns="http://www.w3.org/2000/svg">
<path d="M3.5 15.5V2.72733C3.49993 2.45588 3.57715 2.19209 3.71952 1.97738C3.86189 1.76268 4.06136 1.60923 4.2866 1.54113C4.51183 1.47304 4.75008 1.49415 4.96391 1.60116C5.17774 1.70816 5.35506 1.895 5.468 2.13233L11.532 14.8677C11.6449 15.105 11.8223 15.2918 12.0361 15.3988C12.2499 15.5058 12.4882 15.527 12.7134 15.4589C12.9386 15.3908 13.1381 15.2373 13.2805 15.0226C13.4229 14.8079 13.5001 14.5441 13.5 14.2727V1.5M1.5 6.16667H15.5M1.5 10.8333H15.5" stroke="#F5F5F5" stroke-width="1.5" stroke-linecap="round" stroke-linejoin="round"/>
</svg>
