<svg width="40" height="40" viewBox="0 0 40 40" fill="none" xmlns="http://www.w3.org/2000/svg">
<path fill-rule="evenodd" clip-rule="evenodd" d="M18 0C8.05887 0 0 8.05887 0 18C0 27.9411 8.05887 36 18 36C22.25 36 26.156 34.5271 29.2354 32.0638L36.5858 39.4142C37.3668 40.1953 38.6332 40.1953 39.4142 39.4142C40.1953 38.6332 40.1953 37.3668 39.4142 36.5858L32.0638 29.2354C34.5271 26.156 36 22.25 36 18C36 8.05887 27.9411 0 18 0ZM4 18C4 10.268 10.268 4 18 4C25.732 4 32 10.268 32 18C32 25.732 25.732 32 18 32C10.268 32 4 25.732 4 18Z" fill="#6D1E6D"/>
</svg>
