<svg width="30" height="26" viewBox="0 0 30 26" fill="none" xmlns="http://www.w3.org/2000/svg">
<path d="M8.45508 18.286C6.88774 19.5221 5.08876 20.4289 3.16521 20.9527C2.95334 21.0299 2.77028 21.1707 2.64092 21.356C2.51155 21.5413 2.44216 21.7621 2.44216 21.9885C2.44216 22.2148 2.51155 22.4356 2.64092 22.6209C2.77028 22.8062 2.95334 22.947 3.16521 23.0243C18.3544 29.2831 28.0123 19.6083 26.5416 8.87567L29 3.76278H26.1465C22.5907 -0.622844 13.1523 -0.40246 14.7107 8.94178C14.7107 8.94178 9.66232 9.84535 3.20911 3.47628C3.05983 3.32831 2.87145 3.22639 2.66626 3.18259C2.46108 3.1388 2.24769 3.15496 2.05137 3.22917C1.85505 3.30337 1.68403 3.43251 1.55855 3.6013C1.43308 3.77008 1.35841 3.97143 1.34338 4.18151C0.661036 6.99767 1.00251 9.96591 2.30632 12.5517C3.61013 15.1375 5.7906 17.171 8.45508 18.286Z" stroke="#E4B363" stroke-width="1.3" stroke-linecap="round" stroke-linejoin="round"/>
</svg>
