<svg width="36" height="40" viewBox="0 0 36 40" fill="none" xmlns="http://www.w3.org/2000/svg">
<path fill-rule="evenodd" clip-rule="evenodd" d="M5.68751 9.52381C5.68751 4.26396 9.93148 0 15.1667 0C20.4019 0 24.6459 4.26396 24.6459 9.52381C24.6459 14.7837 20.4019 19.0476 15.1667 19.0476C9.93148 19.0476 5.68751 14.7837 5.68751 9.52381ZM15.1667 3.80952C12.0256 3.80952 9.47918 6.3679 9.47918 9.52381C9.47918 12.6797 12.0256 15.2381 15.1667 15.2381C18.3078 15.2381 20.8542 12.6797 20.8542 9.52381C20.8542 6.3679 18.3078 3.80952 15.1667 3.80952Z" fill="#6D1E6D"/>
<path fill-rule="evenodd" clip-rule="evenodd" d="M4.84467 37.9379C8.01904 39.3337 12.2461 40 15.1667 40C18.0872 40 22.3143 39.3337 25.4887 37.9379C27.0471 37.2526 28.6319 36.2719 29.5527 34.8522C30.037 34.1056 30.3432 33.2261 30.3331 32.2442C30.3232 31.2713 30.0045 30.3392 29.469 29.472C26.8729 25.2678 21.5617 20.9524 15.1667 20.9524C8.77163 20.9524 3.4605 25.2678 0.864339 29.472C0.328812 30.3392 0.0101821 31.2713 0.000239404 32.2442C-0.00979516 33.2261 0.29635 34.1056 0.780616 34.8522C1.70142 36.2719 3.2863 37.2526 4.84467 37.9379ZM3.79171 32.2833C3.79313 32.1442 3.83664 31.8846 4.08627 31.4804C6.21368 28.0353 10.4568 24.7619 15.1667 24.7619C19.8766 24.7619 24.1197 28.0353 26.2471 31.4804C26.4967 31.8846 26.5402 32.1442 26.5417 32.2833C26.543 32.4134 26.5097 32.5663 26.3761 32.7723C26.061 33.258 25.296 33.8642 23.9684 34.448C21.3709 35.5902 17.682 36.1905 15.1667 36.1905C12.6514 36.1905 8.96245 35.5902 6.36493 34.448C5.03737 33.8642 4.27234 33.258 3.9573 32.7723C3.82364 32.5663 3.79038 32.4134 3.79171 32.2833Z" fill="#6D1E6D"/>
<path d="M35.4447 4.20399C36.1851 3.46013 36.1851 2.2541 35.4447 1.51025C34.7044 0.766389 33.504 0.766387 32.7636 1.51024L29.0881 5.20307L28.5537 4.66614C27.8133 3.92229 26.6129 3.92229 25.8725 4.66614C25.1322 5.41 25.1322 6.61603 25.8725 7.35988L27.7475 9.24368C28.4879 9.98753 29.6883 9.98753 30.4286 9.24368L35.4447 4.20399Z" fill="#6D1E6D"/>
</svg>
